<mxfile host="app.diagrams.net" modified="2024-07-18T13:54:53.744Z" agent="Mozilla/5.0 (Windows NT 10.0; Win64; x64) AppleWebKit/537.36 (KHTML, like Gecko) Chrome/126.0.0.0 Safari/537.36 Edg/126.0.0.0" etag="7AW2We9-UeU_BjlCuRbF" version="24.7.0" type="google">
  <diagram id="R2lEEEUBdFMjLlhIrx00" name="Page-1">
    <mxGraphModel grid="1" page="1" gridSize="10" guides="1" tooltips="1" connect="1" arrows="1" fold="1" pageScale="1" pageWidth="850" pageHeight="1100" math="0" shadow="0" extFonts="Permanent Marker^https://fonts.googleapis.com/css?family=Permanent+Marker">
      <root>
        <mxCell id="0" />
        <mxCell id="1" parent="0" />
        <mxCell id="qolicd1jbvUPZrwgAPYO-1" value="SinhVien" style="rounded=1;whiteSpace=wrap;html=1;" vertex="1" parent="1">
          <mxGeometry x="603.6" y="655" width="120" height="60" as="geometry" />
        </mxCell>
        <mxCell id="qolicd1jbvUPZrwgAPYO-6" value="DiemRenLuyen" style="rounded=1;whiteSpace=wrap;html=1;" vertex="1" parent="1">
          <mxGeometry x="1120" y="-60" width="120" height="60" as="geometry" />
        </mxCell>
        <mxCell id="qolicd1jbvUPZrwgAPYO-8" value="LyLichSV" style="rounded=1;whiteSpace=wrap;html=1;" vertex="1" parent="1">
          <mxGeometry x="1130" y="1005" width="120" height="60" as="geometry" />
        </mxCell>
        <mxCell id="qolicd1jbvUPZrwgAPYO-9" value="CacChungChi" style="rounded=1;whiteSpace=wrap;html=1;" vertex="1" parent="1">
          <mxGeometry x="1120" y="236.5" width="120" height="60" as="geometry" />
        </mxCell>
        <mxCell id="qolicd1jbvUPZrwgAPYO-14" value="&lt;font style=&quot;font-size: 18px;&quot;&gt;MaSV&lt;/font&gt;" style="ellipse;whiteSpace=wrap;html=1;fontStyle=4" vertex="1" parent="1">
          <mxGeometry x="363.6" y="590" width="116.4" height="65" as="geometry" />
        </mxCell>
        <mxCell id="qolicd1jbvUPZrwgAPYO-17" value="MaLop" style="ellipse;whiteSpace=wrap;html=1;fontStyle=4" vertex="1" parent="1">
          <mxGeometry x="530" y="316.5" width="100" height="50" as="geometry" />
        </mxCell>
        <mxCell id="qolicd1jbvUPZrwgAPYO-18" value="NienKhoa" style="ellipse;whiteSpace=wrap;html=1;" vertex="1" parent="1">
          <mxGeometry x="780" y="540" width="100" height="50" as="geometry" />
        </mxCell>
        <mxCell id="qolicd1jbvUPZrwgAPYO-19" value="HoTenSV" style="ellipse;whiteSpace=wrap;html=1;" vertex="1" parent="1">
          <mxGeometry x="510" y="550" width="100" height="50" as="geometry" />
        </mxCell>
        <mxCell id="qolicd1jbvUPZrwgAPYO-20" value="" style="endArrow=none;html=1;rounded=0;entryX=0;entryY=0;entryDx=0;entryDy=0;exitX=1;exitY=1;exitDx=0;exitDy=0;" edge="1" parent="1" source="qolicd1jbvUPZrwgAPYO-14" target="qolicd1jbvUPZrwgAPYO-1">
          <mxGeometry width="50" height="50" relative="1" as="geometry">
            <mxPoint x="880" y="810" as="sourcePoint" />
            <mxPoint x="930" y="760" as="targetPoint" />
          </mxGeometry>
        </mxCell>
        <mxCell id="qolicd1jbvUPZrwgAPYO-22" value="" style="endArrow=none;html=1;rounded=0;entryX=0.75;entryY=0;entryDx=0;entryDy=0;exitX=0.5;exitY=1;exitDx=0;exitDy=0;" edge="1" parent="1" source="qolicd1jbvUPZrwgAPYO-18" target="qolicd1jbvUPZrwgAPYO-1">
          <mxGeometry width="50" height="50" relative="1" as="geometry">
            <mxPoint x="690" y="600" as="sourcePoint" />
            <mxPoint x="785" y="647" as="targetPoint" />
          </mxGeometry>
        </mxCell>
        <mxCell id="qolicd1jbvUPZrwgAPYO-23" value="" style="endArrow=none;html=1;rounded=0;entryX=0.25;entryY=0;entryDx=0;entryDy=0;exitX=0.5;exitY=1;exitDx=0;exitDy=0;" edge="1" parent="1" source="qolicd1jbvUPZrwgAPYO-19" target="qolicd1jbvUPZrwgAPYO-1">
          <mxGeometry width="50" height="50" relative="1" as="geometry">
            <mxPoint x="585" y="643" as="sourcePoint" />
            <mxPoint x="680" y="690" as="targetPoint" />
          </mxGeometry>
        </mxCell>
        <mxCell id="qolicd1jbvUPZrwgAPYO-24" value="MaSV" style="ellipse;whiteSpace=wrap;html=1;fontStyle=4" vertex="1" parent="1">
          <mxGeometry x="1380" y="-120" width="100" height="50" as="geometry" />
        </mxCell>
        <mxCell id="qolicd1jbvUPZrwgAPYO-26" value="XepLoai" style="ellipse;whiteSpace=wrap;html=1;" vertex="1" parent="1">
          <mxGeometry x="1275" y="-240" width="100" height="50" as="geometry" />
        </mxCell>
        <mxCell id="qolicd1jbvUPZrwgAPYO-27" value="" style="endArrow=none;html=1;rounded=0;entryX=0.5;entryY=0;entryDx=0;entryDy=0;exitX=0.5;exitY=1;exitDx=0;exitDy=0;" edge="1" parent="1" source="qolicd1jbvUPZrwgAPYO-26" target="qolicd1jbvUPZrwgAPYO-6">
          <mxGeometry width="50" height="50" relative="1" as="geometry">
            <mxPoint x="1610" as="sourcePoint" />
            <mxPoint x="1240" y="-90" as="targetPoint" />
          </mxGeometry>
        </mxCell>
        <mxCell id="qolicd1jbvUPZrwgAPYO-28" value="DiemHocTap" style="ellipse;whiteSpace=wrap;html=1;" vertex="1" parent="1">
          <mxGeometry x="1150" y="-270" width="100" height="50" as="geometry" />
        </mxCell>
        <mxCell id="qolicd1jbvUPZrwgAPYO-29" value="" style="endArrow=none;html=1;rounded=0;entryX=0.25;entryY=0;entryDx=0;entryDy=0;exitX=0.5;exitY=1;exitDx=0;exitDy=0;" edge="1" parent="1" source="qolicd1jbvUPZrwgAPYO-28" target="qolicd1jbvUPZrwgAPYO-6">
          <mxGeometry width="50" height="50" relative="1" as="geometry">
            <mxPoint x="1530" as="sourcePoint" />
            <mxPoint x="1160" y="-90" as="targetPoint" />
          </mxGeometry>
        </mxCell>
        <mxCell id="qolicd1jbvUPZrwgAPYO-30" value="DiemNoiQuy" style="ellipse;whiteSpace=wrap;html=1;" vertex="1" parent="1">
          <mxGeometry x="1030" y="-250" width="100" height="50" as="geometry" />
        </mxCell>
        <mxCell id="qolicd1jbvUPZrwgAPYO-31" value="" style="endArrow=none;html=1;rounded=0;entryX=0.061;entryY=-0.022;entryDx=0;entryDy=0;exitX=0.5;exitY=1;exitDx=0;exitDy=0;entryPerimeter=0;" edge="1" parent="1" source="qolicd1jbvUPZrwgAPYO-30" target="qolicd1jbvUPZrwgAPYO-6">
          <mxGeometry width="50" height="50" relative="1" as="geometry">
            <mxPoint x="1420" y="-10" as="sourcePoint" />
            <mxPoint x="1050" y="-100" as="targetPoint" />
          </mxGeometry>
        </mxCell>
        <mxCell id="qolicd1jbvUPZrwgAPYO-32" value="DiemYThucCongDan" style="ellipse;whiteSpace=wrap;html=1;" vertex="1" parent="1">
          <mxGeometry x="920" y="-200" width="150" height="50" as="geometry" />
        </mxCell>
        <mxCell id="qolicd1jbvUPZrwgAPYO-33" value="" style="endArrow=none;html=1;rounded=0;entryX=0;entryY=0.25;entryDx=0;entryDy=0;exitX=0.5;exitY=1;exitDx=0;exitDy=0;" edge="1" parent="1" source="qolicd1jbvUPZrwgAPYO-32" target="qolicd1jbvUPZrwgAPYO-6">
          <mxGeometry width="50" height="50" relative="1" as="geometry">
            <mxPoint x="1340" y="30" as="sourcePoint" />
            <mxPoint x="1060" y="-50" as="targetPoint" />
          </mxGeometry>
        </mxCell>
        <mxCell id="qolicd1jbvUPZrwgAPYO-34" value="MaSV" style="ellipse;whiteSpace=wrap;html=1;fontStyle=4" vertex="1" parent="1">
          <mxGeometry x="1290" y="130" width="100" height="50" as="geometry" />
        </mxCell>
        <mxCell id="qolicd1jbvUPZrwgAPYO-35" value="" style="endArrow=none;html=1;rounded=0;entryX=0;entryY=0.5;entryDx=0;entryDy=0;exitX=1;exitY=0.5;exitDx=0;exitDy=0;" edge="1" parent="1" source="qolicd1jbvUPZrwgAPYO-9" target="qolicd1jbvUPZrwgAPYO-36">
          <mxGeometry width="50" height="50" relative="1" as="geometry">
            <mxPoint x="1240" y="266.5" as="sourcePoint" />
            <mxPoint x="1340" y="216.5" as="targetPoint" />
          </mxGeometry>
        </mxCell>
        <mxCell id="qolicd1jbvUPZrwgAPYO-36" value="Ten" style="ellipse;whiteSpace=wrap;html=1;" vertex="1" parent="1">
          <mxGeometry x="1390" y="186.5" width="100" height="50" as="geometry" />
        </mxCell>
        <mxCell id="qolicd1jbvUPZrwgAPYO-37" value="" style="endArrow=none;html=1;rounded=0;entryX=0;entryY=0.5;entryDx=0;entryDy=0;exitX=1;exitY=0.75;exitDx=0;exitDy=0;" edge="1" parent="1" source="qolicd1jbvUPZrwgAPYO-9" target="qolicd1jbvUPZrwgAPYO-38">
          <mxGeometry width="50" height="50" relative="1" as="geometry">
            <mxPoint x="1250" y="286.5" as="sourcePoint" />
            <mxPoint x="1340" y="286.5" as="targetPoint" />
          </mxGeometry>
        </mxCell>
        <mxCell id="qolicd1jbvUPZrwgAPYO-38" value="ThoiHan" style="ellipse;whiteSpace=wrap;html=1;" vertex="1" parent="1">
          <mxGeometry x="1400" y="260" width="100" height="50" as="geometry" />
        </mxCell>
        <mxCell id="qolicd1jbvUPZrwgAPYO-39" value="" style="endArrow=none;html=1;rounded=0;entryX=0;entryY=0;entryDx=0;entryDy=0;exitX=1;exitY=1;exitDx=0;exitDy=0;" edge="1" parent="1" source="qolicd1jbvUPZrwgAPYO-9" target="qolicd1jbvUPZrwgAPYO-40">
          <mxGeometry width="50" height="50" relative="1" as="geometry">
            <mxPoint x="1300" y="396.5" as="sourcePoint" />
            <mxPoint x="1400" y="346.5" as="targetPoint" />
          </mxGeometry>
        </mxCell>
        <mxCell id="qolicd1jbvUPZrwgAPYO-40" value="Diem" style="ellipse;whiteSpace=wrap;html=1;" vertex="1" parent="1">
          <mxGeometry x="1300" y="376.5" width="100" height="50" as="geometry" />
        </mxCell>
        <mxCell id="qolicd1jbvUPZrwgAPYO-42" value="MaSV" style="ellipse;whiteSpace=wrap;html=1;fontStyle=4" vertex="1" parent="1">
          <mxGeometry x="1380" y="940" width="100" height="50" as="geometry" />
        </mxCell>
        <mxCell id="qolicd1jbvUPZrwgAPYO-43" value="Diem" style="rounded=1;whiteSpace=wrap;html=1;" vertex="1" parent="1">
          <mxGeometry x="1120" y="640" width="120" height="60" as="geometry" />
        </mxCell>
        <mxCell id="qolicd1jbvUPZrwgAPYO-44" value="MaSV" style="ellipse;whiteSpace=wrap;html=1;fontStyle=4" vertex="1" parent="1">
          <mxGeometry x="1280" y="470" width="100" height="50" as="geometry" />
        </mxCell>
        <mxCell id="qolicd1jbvUPZrwgAPYO-48" value="MaHP" style="ellipse;whiteSpace=wrap;html=1;" vertex="1" parent="1">
          <mxGeometry x="1400" y="480" width="100" height="50" as="geometry" />
        </mxCell>
        <mxCell id="qolicd1jbvUPZrwgAPYO-49" value="" style="endArrow=none;html=1;rounded=0;entryX=0.942;entryY=0.031;entryDx=0;entryDy=0;exitX=0;exitY=0.5;exitDx=0;exitDy=0;entryPerimeter=0;" edge="1" parent="1" source="qolicd1jbvUPZrwgAPYO-48" target="qolicd1jbvUPZrwgAPYO-43">
          <mxGeometry width="50" height="50" relative="1" as="geometry">
            <mxPoint x="1560" y="505" as="sourcePoint" />
            <mxPoint x="1300" y="355" as="targetPoint" />
          </mxGeometry>
        </mxCell>
        <mxCell id="qolicd1jbvUPZrwgAPYO-50" value="MaLop" style="ellipse;whiteSpace=wrap;html=1;" vertex="1" parent="1">
          <mxGeometry x="1470" y="605" width="100" height="50" as="geometry" />
        </mxCell>
        <mxCell id="qolicd1jbvUPZrwgAPYO-51" value="" style="endArrow=none;html=1;rounded=0;entryX=1;entryY=0.25;entryDx=0;entryDy=0;exitX=0;exitY=0.5;exitDx=0;exitDy=0;" edge="1" parent="1" source="qolicd1jbvUPZrwgAPYO-50" target="qolicd1jbvUPZrwgAPYO-43">
          <mxGeometry width="50" height="50" relative="1" as="geometry">
            <mxPoint x="1540" y="585" as="sourcePoint" />
            <mxPoint x="1280" y="435" as="targetPoint" />
          </mxGeometry>
        </mxCell>
        <mxCell id="qolicd1jbvUPZrwgAPYO-54" value="DiemCK" style="ellipse;whiteSpace=wrap;html=1;" vertex="1" parent="1">
          <mxGeometry x="1400" y="720" width="100" height="50" as="geometry" />
        </mxCell>
        <mxCell id="qolicd1jbvUPZrwgAPYO-55" value="" style="endArrow=none;html=1;rounded=0;entryX=1;entryY=0.75;entryDx=0;entryDy=0;exitX=0;exitY=0.5;exitDx=0;exitDy=0;" edge="1" parent="1" source="qolicd1jbvUPZrwgAPYO-54" target="qolicd1jbvUPZrwgAPYO-43">
          <mxGeometry width="50" height="50" relative="1" as="geometry">
            <mxPoint x="1660" y="725" as="sourcePoint" />
            <mxPoint x="1400" y="575" as="targetPoint" />
          </mxGeometry>
        </mxCell>
        <mxCell id="qolicd1jbvUPZrwgAPYO-57" value="DiemKetThucHP" style="ellipse;whiteSpace=wrap;html=1;" vertex="1" parent="1">
          <mxGeometry x="1330" y="790" width="100" height="50" as="geometry" />
        </mxCell>
        <mxCell id="qolicd1jbvUPZrwgAPYO-58" value="" style="endArrow=none;html=1;rounded=0;entryX=1;entryY=1;entryDx=0;entryDy=0;exitX=0;exitY=0.5;exitDx=0;exitDy=0;" edge="1" parent="1" source="qolicd1jbvUPZrwgAPYO-57" target="qolicd1jbvUPZrwgAPYO-43">
          <mxGeometry width="50" height="50" relative="1" as="geometry">
            <mxPoint x="1510" y="755" as="sourcePoint" />
            <mxPoint x="1250" y="605" as="targetPoint" />
          </mxGeometry>
        </mxCell>
        <mxCell id="qolicd1jbvUPZrwgAPYO-59" value="" style="endArrow=none;html=1;rounded=0;entryX=0;entryY=0.5;entryDx=0;entryDy=0;exitX=0.893;exitY=0.984;exitDx=0;exitDy=0;exitPerimeter=0;" edge="1" parent="1" source="qolicd1jbvUPZrwgAPYO-8" target="qolicd1jbvUPZrwgAPYO-60">
          <mxGeometry width="50" height="50" relative="1" as="geometry">
            <mxPoint x="1270" y="1055" as="sourcePoint" />
            <mxPoint x="1440" y="985" as="targetPoint" />
          </mxGeometry>
        </mxCell>
        <mxCell id="qolicd1jbvUPZrwgAPYO-60" value="NSinh" style="ellipse;whiteSpace=wrap;html=1;" vertex="1" parent="1">
          <mxGeometry x="1420" y="1200" width="100" height="50" as="geometry" />
        </mxCell>
        <mxCell id="qolicd1jbvUPZrwgAPYO-61" value="" style="endArrow=none;html=1;rounded=0;entryX=0;entryY=0;entryDx=0;entryDy=0;exitX=0.75;exitY=1;exitDx=0;exitDy=0;" edge="1" parent="1" source="qolicd1jbvUPZrwgAPYO-8" target="qolicd1jbvUPZrwgAPYO-62">
          <mxGeometry width="50" height="50" relative="1" as="geometry">
            <mxPoint x="1210" y="1059" as="sourcePoint" />
            <mxPoint x="1450" y="1045" as="targetPoint" />
          </mxGeometry>
        </mxCell>
        <mxCell id="qolicd1jbvUPZrwgAPYO-62" value="DChi" style="ellipse;whiteSpace=wrap;html=1;" vertex="1" parent="1">
          <mxGeometry x="1310" y="1240" width="100" height="50" as="geometry" />
        </mxCell>
        <mxCell id="qolicd1jbvUPZrwgAPYO-63" value="" style="endArrow=none;html=1;rounded=0;entryX=0.5;entryY=0;entryDx=0;entryDy=0;exitX=0.5;exitY=1;exitDx=0;exitDy=0;" edge="1" parent="1" source="qolicd1jbvUPZrwgAPYO-8" target="qolicd1jbvUPZrwgAPYO-64">
          <mxGeometry width="50" height="50" relative="1" as="geometry">
            <mxPoint x="1290" y="1205" as="sourcePoint" />
            <mxPoint x="1460" y="1135" as="targetPoint" />
          </mxGeometry>
        </mxCell>
        <mxCell id="qolicd1jbvUPZrwgAPYO-64" value="GTinh" style="ellipse;whiteSpace=wrap;html=1;" vertex="1" parent="1">
          <mxGeometry x="1180" y="1250" width="100" height="50" as="geometry" />
        </mxCell>
        <mxCell id="qolicd1jbvUPZrwgAPYO-65" value="" style="endArrow=none;html=1;rounded=0;entryX=0.5;entryY=0;entryDx=0;entryDy=0;exitX=0.368;exitY=0.984;exitDx=0;exitDy=0;exitPerimeter=0;" edge="1" parent="1" source="qolicd1jbvUPZrwgAPYO-8" target="qolicd1jbvUPZrwgAPYO-66">
          <mxGeometry width="50" height="50" relative="1" as="geometry">
            <mxPoint x="1180" y="1065" as="sourcePoint" />
            <mxPoint x="1040.0000000000005" y="1250" as="targetPoint" />
          </mxGeometry>
        </mxCell>
        <mxCell id="qolicd1jbvUPZrwgAPYO-66" value="CCCD" style="ellipse;whiteSpace=wrap;html=1;" vertex="1" parent="1">
          <mxGeometry x="1040" y="1220" width="100" height="50" as="geometry" />
        </mxCell>
        <mxCell id="qolicd1jbvUPZrwgAPYO-67" value="" style="endArrow=none;html=1;rounded=0;entryX=0;entryY=0.5;entryDx=0;entryDy=0;exitX=0.25;exitY=1;exitDx=0;exitDy=0;" edge="1" parent="1" source="qolicd1jbvUPZrwgAPYO-8" target="qolicd1jbvUPZrwgAPYO-68">
          <mxGeometry width="50" height="50" relative="1" as="geometry">
            <mxPoint x="1290" y="1335" as="sourcePoint" />
            <mxPoint x="1460" y="1265" as="targetPoint" />
          </mxGeometry>
        </mxCell>
        <mxCell id="qolicd1jbvUPZrwgAPYO-68" value="Email" style="ellipse;whiteSpace=wrap;html=1;" vertex="1" parent="1">
          <mxGeometry x="900" y="1180" width="100" height="50" as="geometry" />
        </mxCell>
        <mxCell id="qolicd1jbvUPZrwgAPYO-69" value="" style="endArrow=none;html=1;rounded=0;entryX=0;entryY=0.5;entryDx=0;entryDy=0;exitX=0;exitY=1;exitDx=0;exitDy=0;" edge="1" parent="1" source="qolicd1jbvUPZrwgAPYO-8" target="qolicd1jbvUPZrwgAPYO-70">
          <mxGeometry width="50" height="50" relative="1" as="geometry">
            <mxPoint x="1290" y="1395" as="sourcePoint" />
            <mxPoint x="1460" y="1325" as="targetPoint" />
          </mxGeometry>
        </mxCell>
        <mxCell id="qolicd1jbvUPZrwgAPYO-70" value="SDT" style="ellipse;whiteSpace=wrap;html=1;" vertex="1" parent="1">
          <mxGeometry x="840" y="1090" width="100" height="50" as="geometry" />
        </mxCell>
        <mxCell id="qolicd1jbvUPZrwgAPYO-82" value="Lop" style="rounded=1;whiteSpace=wrap;html=1;" vertex="1" parent="1">
          <mxGeometry x="520" y="200" width="120" height="60" as="geometry" />
        </mxCell>
        <mxCell id="qolicd1jbvUPZrwgAPYO-83" value="TenLop" style="ellipse;whiteSpace=wrap;html=1;fontStyle=0" vertex="1" parent="1">
          <mxGeometry x="320" y="186.5" width="100" height="50" as="geometry" />
        </mxCell>
        <mxCell id="qolicd1jbvUPZrwgAPYO-84" value="MaNganh" style="ellipse;whiteSpace=wrap;html=1;fontStyle=4" vertex="1" parent="1">
          <mxGeometry x="523.6" y="-30" width="100" height="50" as="geometry" />
        </mxCell>
        <mxCell id="qolicd1jbvUPZrwgAPYO-85" value="Khoa" style="ellipse;whiteSpace=wrap;html=1;" vertex="1" parent="1">
          <mxGeometry x="630" y="110" width="100" height="50" as="geometry" />
        </mxCell>
        <mxCell id="qolicd1jbvUPZrwgAPYO-86" value="SiSo" style="ellipse;whiteSpace=wrap;html=1;" vertex="1" parent="1">
          <mxGeometry x="723.6" y="170" width="100" height="50" as="geometry" />
        </mxCell>
        <mxCell id="qolicd1jbvUPZrwgAPYO-87" value="" style="endArrow=none;html=1;rounded=0;entryX=0;entryY=0.5;entryDx=0;entryDy=0;exitX=1;exitY=0.5;exitDx=0;exitDy=0;" edge="1" parent="1" source="qolicd1jbvUPZrwgAPYO-83" target="qolicd1jbvUPZrwgAPYO-82">
          <mxGeometry width="50" height="50" relative="1" as="geometry">
            <mxPoint x="753.6" y="336.5" as="sourcePoint" />
            <mxPoint x="803.6" y="286.5" as="targetPoint" />
          </mxGeometry>
        </mxCell>
        <mxCell id="qolicd1jbvUPZrwgAPYO-89" value="" style="endArrow=none;html=1;rounded=0;entryX=1;entryY=0;entryDx=0;entryDy=0;exitX=0.5;exitY=1;exitDx=0;exitDy=0;" edge="1" parent="1" source="qolicd1jbvUPZrwgAPYO-85" target="qolicd1jbvUPZrwgAPYO-82">
          <mxGeometry width="50" height="50" relative="1" as="geometry">
            <mxPoint x="563.6" y="126.5" as="sourcePoint" />
            <mxPoint x="658.6" y="173.5" as="targetPoint" />
          </mxGeometry>
        </mxCell>
        <mxCell id="qolicd1jbvUPZrwgAPYO-90" value="" style="endArrow=none;html=1;rounded=0;entryX=1;entryY=0.5;entryDx=0;entryDy=0;exitX=0;exitY=1;exitDx=0;exitDy=0;" edge="1" parent="1" source="qolicd1jbvUPZrwgAPYO-86" target="qolicd1jbvUPZrwgAPYO-82">
          <mxGeometry width="50" height="50" relative="1" as="geometry">
            <mxPoint x="458.6000000000001" y="170.51999999999998" as="sourcePoint" />
            <mxPoint x="590.7999999999998" y="186.5" as="targetPoint" />
          </mxGeometry>
        </mxCell>
        <mxCell id="qolicd1jbvUPZrwgAPYO-91" value="MaLopTruong" style="ellipse;whiteSpace=wrap;html=1;" vertex="1" parent="1">
          <mxGeometry x="700" y="260" width="100" height="50" as="geometry" />
        </mxCell>
        <mxCell id="qolicd1jbvUPZrwgAPYO-92" value="" style="endArrow=none;html=1;rounded=0;entryX=1;entryY=0.75;entryDx=0;entryDy=0;exitX=0.016;exitY=0.348;exitDx=0;exitDy=0;exitPerimeter=0;" edge="1" parent="1" source="qolicd1jbvUPZrwgAPYO-91" target="qolicd1jbvUPZrwgAPYO-82">
          <mxGeometry width="50" height="50" relative="1" as="geometry">
            <mxPoint x="498.6" y="230.51999999999998" as="sourcePoint" />
            <mxPoint x="630.7999999999998" y="246.5" as="targetPoint" />
          </mxGeometry>
        </mxCell>
        <mxCell id="qolicd1jbvUPZrwgAPYO-96" value="MaHDT" style="ellipse;whiteSpace=wrap;html=1;fontStyle=4" vertex="1" parent="1">
          <mxGeometry x="279.99999999999994" y="-10" width="100" height="50" as="geometry" />
        </mxCell>
        <mxCell id="qolicd1jbvUPZrwgAPYO-113" value="Có" style="rhombus;whiteSpace=wrap;html=1;" vertex="1" parent="1">
          <mxGeometry x="860" y="620" width="150" height="80" as="geometry" />
        </mxCell>
        <mxCell id="qolicd1jbvUPZrwgAPYO-116" value="" style="endArrow=none;html=1;rounded=0;exitX=1;exitY=0.25;exitDx=0;exitDy=0;entryX=0;entryY=0.5;entryDx=0;entryDy=0;" edge="1" parent="1" source="qolicd1jbvUPZrwgAPYO-1" target="qolicd1jbvUPZrwgAPYO-113">
          <mxGeometry width="50" height="50" relative="1" as="geometry">
            <mxPoint x="850" y="530" as="sourcePoint" />
            <mxPoint x="850" y="650" as="targetPoint" />
          </mxGeometry>
        </mxCell>
        <mxCell id="qolicd1jbvUPZrwgAPYO-119" value="" style="endArrow=none;html=1;rounded=0;exitX=1;exitY=0.5;exitDx=0;exitDy=0;entryX=0;entryY=0.5;entryDx=0;entryDy=0;" edge="1" parent="1" source="qolicd1jbvUPZrwgAPYO-113" target="qolicd1jbvUPZrwgAPYO-43">
          <mxGeometry width="50" height="50" relative="1" as="geometry">
            <mxPoint x="1000" y="560" as="sourcePoint" />
            <mxPoint x="1120" y="545" as="targetPoint" />
          </mxGeometry>
        </mxCell>
        <mxCell id="qolicd1jbvUPZrwgAPYO-120" value="" style="endArrow=none;html=1;rounded=0;exitX=0;exitY=0.5;exitDx=0;exitDy=0;entryX=1;entryY=0.5;entryDx=0;entryDy=0;" edge="1" parent="1" source="qolicd1jbvUPZrwgAPYO-9" target="qolicd1jbvUPZrwgAPYO-113">
          <mxGeometry width="50" height="50" relative="1" as="geometry">
            <mxPoint x="760" y="695" as="sourcePoint" />
            <mxPoint x="880" y="680" as="targetPoint" />
          </mxGeometry>
        </mxCell>
        <mxCell id="qolicd1jbvUPZrwgAPYO-121" value="" style="endArrow=none;html=1;rounded=0;exitX=1;exitY=0.5;exitDx=0;exitDy=0;entryX=0;entryY=0.5;entryDx=0;entryDy=0;" edge="1" parent="1" source="qolicd1jbvUPZrwgAPYO-113" target="qolicd1jbvUPZrwgAPYO-8">
          <mxGeometry width="50" height="50" relative="1" as="geometry">
            <mxPoint x="770" y="705" as="sourcePoint" />
            <mxPoint x="890" y="690" as="targetPoint" />
            <Array as="points">
              <mxPoint x="1010" y="1020" />
            </Array>
          </mxGeometry>
        </mxCell>
        <mxCell id="qolicd1jbvUPZrwgAPYO-122" value="" style="endArrow=none;html=1;rounded=0;exitX=1;exitY=0.5;exitDx=0;exitDy=0;" edge="1" parent="1" source="qolicd1jbvUPZrwgAPYO-113" target="qolicd1jbvUPZrwgAPYO-6">
          <mxGeometry width="50" height="50" relative="1" as="geometry">
            <mxPoint x="780" y="715" as="sourcePoint" />
            <mxPoint x="900" y="700" as="targetPoint" />
            <Array as="points">
              <mxPoint x="1010" y="100" />
            </Array>
          </mxGeometry>
        </mxCell>
        <mxCell id="qolicd1jbvUPZrwgAPYO-125" value="DangKi" style="rounded=1;whiteSpace=wrap;html=1;" vertex="1" parent="1">
          <mxGeometry x="-480" y="665" width="120" height="60" as="geometry" />
        </mxCell>
        <mxCell id="qolicd1jbvUPZrwgAPYO-136" value="LopHoc" style="rounded=1;whiteSpace=wrap;html=1;" vertex="1" parent="1">
          <mxGeometry x="-1160" y="750" width="120" height="60" as="geometry" />
        </mxCell>
        <mxCell id="qolicd1jbvUPZrwgAPYO-139" value="MaHP" style="ellipse;whiteSpace=wrap;html=1;fontStyle=0" vertex="1" parent="1">
          <mxGeometry x="-780" y="560" width="100" height="50" as="geometry" />
        </mxCell>
        <mxCell id="qolicd1jbvUPZrwgAPYO-143" value="SiSo" style="ellipse;whiteSpace=wrap;html=1;" vertex="1" parent="1">
          <mxGeometry x="-1050" y="940" width="100" height="50.25" as="geometry" />
        </mxCell>
        <mxCell id="qolicd1jbvUPZrwgAPYO-144" value="" style="endArrow=none;html=1;rounded=0;entryX=0.671;entryY=1.028;entryDx=0;entryDy=0;exitX=0;exitY=0.5;exitDx=0;exitDy=0;entryPerimeter=0;" edge="1" parent="1" source="qolicd1jbvUPZrwgAPYO-143" target="qolicd1jbvUPZrwgAPYO-136">
          <mxGeometry width="50" height="50" relative="1" as="geometry">
            <mxPoint x="-590" y="825.25" as="sourcePoint" />
            <mxPoint x="-850" y="675.25" as="targetPoint" />
          </mxGeometry>
        </mxCell>
        <mxCell id="qolicd1jbvUPZrwgAPYO-145" value="ThoiGian" style="ellipse;whiteSpace=wrap;html=1;" vertex="1" parent="1">
          <mxGeometry x="-910" y="780" width="100" height="50" as="geometry" />
        </mxCell>
        <mxCell id="qolicd1jbvUPZrwgAPYO-146" value="" style="endArrow=none;html=1;rounded=0;entryX=1;entryY=0.75;entryDx=0;entryDy=0;exitX=0;exitY=0.5;exitDx=0;exitDy=0;" edge="1" parent="1" source="qolicd1jbvUPZrwgAPYO-145" target="qolicd1jbvUPZrwgAPYO-136">
          <mxGeometry width="50" height="50" relative="1" as="geometry">
            <mxPoint x="-740" y="855.25" as="sourcePoint" />
            <mxPoint x="-1000" y="705.25" as="targetPoint" />
          </mxGeometry>
        </mxCell>
        <mxCell id="qolicd1jbvUPZrwgAPYO-147" value="DiaDiem&amp;nbsp;" style="ellipse;whiteSpace=wrap;html=1;" vertex="1" parent="1">
          <mxGeometry x="-950" y="870" width="100" height="50" as="geometry" />
        </mxCell>
        <mxCell id="qolicd1jbvUPZrwgAPYO-148" value="" style="endArrow=none;html=1;rounded=0;entryX=1;entryY=1;entryDx=0;entryDy=0;" edge="1" parent="1" source="qolicd1jbvUPZrwgAPYO-147" target="qolicd1jbvUPZrwgAPYO-136">
          <mxGeometry width="50" height="50" relative="1" as="geometry">
            <mxPoint x="-730" y="865.25" as="sourcePoint" />
            <mxPoint x="-1030" y="778.25" as="targetPoint" />
          </mxGeometry>
        </mxCell>
        <mxCell id="qolicd1jbvUPZrwgAPYO-149" value="MaLopHoc" style="ellipse;whiteSpace=wrap;html=1;fontStyle=4" vertex="1" parent="1">
          <mxGeometry x="-830" y="690" width="100" height="50" as="geometry" />
        </mxCell>
        <mxCell id="qolicd1jbvUPZrwgAPYO-150" value="" style="endArrow=none;html=1;rounded=0;entryX=1;entryY=0;entryDx=0;entryDy=0;exitX=0;exitY=0.6;exitDx=0;exitDy=0;exitPerimeter=0;" edge="1" parent="1" source="qolicd1jbvUPZrwgAPYO-149" target="qolicd1jbvUPZrwgAPYO-136">
          <mxGeometry width="50" height="50" relative="1" as="geometry">
            <mxPoint x="-850" y="495.75" as="sourcePoint" />
            <mxPoint x="-1200" y="613.75" as="targetPoint" />
          </mxGeometry>
        </mxCell>
        <mxCell id="qolicd1jbvUPZrwgAPYO-151" value="HocPhan" style="rounded=1;whiteSpace=wrap;html=1;" vertex="1" parent="1">
          <mxGeometry x="-630" y="420" width="120" height="60" as="geometry" />
        </mxCell>
        <mxCell id="qolicd1jbvUPZrwgAPYO-152" value="TenHP" style="ellipse;whiteSpace=wrap;html=1;" vertex="1" parent="1">
          <mxGeometry x="-790" y="356.5" width="100" height="50" as="geometry" />
        </mxCell>
        <mxCell id="qolicd1jbvUPZrwgAPYO-153" value="SoTinHocPhan" style="ellipse;whiteSpace=wrap;html=1;" vertex="1" parent="1">
          <mxGeometry x="-710" y="286.5" width="100" height="50" as="geometry" />
        </mxCell>
        <mxCell id="qolicd1jbvUPZrwgAPYO-156" value="" style="endArrow=none;html=1;rounded=0;entryX=0;entryY=0.5;entryDx=0;entryDy=0;exitX=1;exitY=1;exitDx=0;exitDy=0;" edge="1" parent="1" source="qolicd1jbvUPZrwgAPYO-152" target="qolicd1jbvUPZrwgAPYO-151">
          <mxGeometry width="50" height="50" relative="1" as="geometry">
            <mxPoint x="-495" y="643.25" as="sourcePoint" />
            <mxPoint x="-445" y="593.25" as="targetPoint" />
          </mxGeometry>
        </mxCell>
        <mxCell id="qolicd1jbvUPZrwgAPYO-157" value="" style="endArrow=none;html=1;rounded=0;entryX=0.25;entryY=0;entryDx=0;entryDy=0;exitX=0.5;exitY=1;exitDx=0;exitDy=0;" edge="1" parent="1" source="qolicd1jbvUPZrwgAPYO-153" target="qolicd1jbvUPZrwgAPYO-151">
          <mxGeometry width="50" height="50" relative="1" as="geometry">
            <mxPoint x="-810" y="456.25" as="sourcePoint" />
            <mxPoint x="-715" y="503.25" as="targetPoint" />
          </mxGeometry>
        </mxCell>
        <mxCell id="qolicd1jbvUPZrwgAPYO-160" value="" style="endArrow=none;html=1;rounded=0;exitX=0.5;exitY=1;exitDx=0;exitDy=0;entryX=0.5;entryY=0;entryDx=0;entryDy=0;" edge="1" parent="1" source="qolicd1jbvUPZrwgAPYO-151" target="qolicd1jbvUPZrwgAPYO-139">
          <mxGeometry width="50" height="50" relative="1" as="geometry">
            <mxPoint x="-690" y="140.25" as="sourcePoint" />
            <mxPoint x="-680" y="270.25" as="targetPoint" />
          </mxGeometry>
        </mxCell>
        <mxCell id="qolicd1jbvUPZrwgAPYO-166" value="" style="endArrow=none;html=1;rounded=0;entryX=0;entryY=0.5;entryDx=0;entryDy=0;exitX=1;exitY=1;exitDx=0;exitDy=0;" edge="1" parent="1" source="qolicd1jbvUPZrwgAPYO-9" target="qolicd1jbvUPZrwgAPYO-167">
          <mxGeometry width="50" height="50" relative="1" as="geometry">
            <mxPoint x="1240" y="331.5" as="sourcePoint" />
            <mxPoint x="1340" y="336.5" as="targetPoint" />
          </mxGeometry>
        </mxCell>
        <mxCell id="qolicd1jbvUPZrwgAPYO-167" value="ThoiGian" style="ellipse;whiteSpace=wrap;html=1;" vertex="1" parent="1">
          <mxGeometry x="1390" y="326.5" width="100" height="50" as="geometry" />
        </mxCell>
        <mxCell id="qolicd1jbvUPZrwgAPYO-168" value="DiemYThucHoatDong" style="ellipse;whiteSpace=wrap;html=1;" vertex="1" parent="1">
          <mxGeometry x="860" y="-130" width="140" height="50" as="geometry" />
        </mxCell>
        <mxCell id="qolicd1jbvUPZrwgAPYO-169" value="" style="endArrow=none;html=1;rounded=0;entryX=0;entryY=0.5;entryDx=0;entryDy=0;exitX=0.5;exitY=1;exitDx=0;exitDy=0;" edge="1" parent="1" source="qolicd1jbvUPZrwgAPYO-168" target="qolicd1jbvUPZrwgAPYO-6">
          <mxGeometry width="50" height="50" relative="1" as="geometry">
            <mxPoint x="1260" y="100" as="sourcePoint" />
            <mxPoint x="1060" y="65" as="targetPoint" />
          </mxGeometry>
        </mxCell>
        <mxCell id="283_v-8102qVPDfe6uZ3-1" value="DiemGK" style="ellipse;whiteSpace=wrap;html=1;" vertex="1" parent="1">
          <mxGeometry x="1470" y="665" width="100" height="50" as="geometry" />
        </mxCell>
        <mxCell id="283_v-8102qVPDfe6uZ3-2" value="" style="endArrow=none;html=1;rounded=0;entryX=1;entryY=0.5;entryDx=0;entryDy=0;exitX=0;exitY=0.5;exitDx=0;exitDy=0;" edge="1" parent="1" source="283_v-8102qVPDfe6uZ3-1" target="qolicd1jbvUPZrwgAPYO-43">
          <mxGeometry width="50" height="50" relative="1" as="geometry">
            <mxPoint x="1700" y="690" as="sourcePoint" />
            <mxPoint x="1250" y="650" as="targetPoint" />
          </mxGeometry>
        </mxCell>
        <mxCell id="283_v-8102qVPDfe6uZ3-6" value="TrongSo" style="ellipse;whiteSpace=wrap;html=1;" vertex="1" parent="1">
          <mxGeometry x="-470" y="346.5" width="100" height="50" as="geometry" />
        </mxCell>
        <mxCell id="283_v-8102qVPDfe6uZ3-7" value="" style="endArrow=none;html=1;rounded=0;entryX=1;entryY=0;entryDx=0;entryDy=0;exitX=0.5;exitY=1;exitDx=0;exitDy=0;" edge="1" parent="1" source="283_v-8102qVPDfe6uZ3-6" target="qolicd1jbvUPZrwgAPYO-151">
          <mxGeometry width="50" height="50" relative="1" as="geometry">
            <mxPoint x="-680" y="449.5" as="sourcePoint" />
            <mxPoint x="-540" y="410" as="targetPoint" />
          </mxGeometry>
        </mxCell>
        <mxCell id="283_v-8102qVPDfe6uZ3-8" value="GV" style="rounded=1;whiteSpace=wrap;html=1;" vertex="1" parent="1">
          <mxGeometry x="-1380" y="1070" width="120" height="60" as="geometry" />
        </mxCell>
        <mxCell id="283_v-8102qVPDfe6uZ3-11" value="" style="endArrow=none;html=1;rounded=0;entryX=1;entryY=0.5;entryDx=0;entryDy=0;exitX=0;exitY=1;exitDx=0;exitDy=0;" edge="1" parent="1" source="283_v-8102qVPDfe6uZ3-8" target="283_v-8102qVPDfe6uZ3-12">
          <mxGeometry width="50" height="50" relative="1" as="geometry">
            <mxPoint x="-960" y="1175" as="sourcePoint" />
            <mxPoint x="-790" y="1105" as="targetPoint" />
          </mxGeometry>
        </mxCell>
        <mxCell id="283_v-8102qVPDfe6uZ3-12" value="Email" style="ellipse;whiteSpace=wrap;html=1;" vertex="1" parent="1">
          <mxGeometry x="-1600" y="1140" width="100" height="50" as="geometry" />
        </mxCell>
        <mxCell id="283_v-8102qVPDfe6uZ3-13" value="" style="endArrow=none;html=1;rounded=0;entryX=1;entryY=0;entryDx=0;entryDy=0;exitX=0.5;exitY=1;exitDx=0;exitDy=0;" edge="1" parent="1" source="283_v-8102qVPDfe6uZ3-8" target="283_v-8102qVPDfe6uZ3-14">
          <mxGeometry width="50" height="50" relative="1" as="geometry">
            <mxPoint x="-950" y="1235" as="sourcePoint" />
            <mxPoint x="-780" y="1165" as="targetPoint" />
          </mxGeometry>
        </mxCell>
        <mxCell id="283_v-8102qVPDfe6uZ3-14" value="DChi" style="ellipse;whiteSpace=wrap;html=1;" vertex="1" parent="1">
          <mxGeometry x="-1500" y="1200" width="100" height="50" as="geometry" />
        </mxCell>
        <mxCell id="283_v-8102qVPDfe6uZ3-15" value="" style="endArrow=none;html=1;rounded=0;entryX=0.5;entryY=0;entryDx=0;entryDy=0;exitX=0.75;exitY=1;exitDx=0;exitDy=0;" edge="1" parent="1" source="283_v-8102qVPDfe6uZ3-8" target="283_v-8102qVPDfe6uZ3-16">
          <mxGeometry width="50" height="50" relative="1" as="geometry">
            <mxPoint x="-940" y="1325" as="sourcePoint" />
            <mxPoint x="-770" y="1255" as="targetPoint" />
          </mxGeometry>
        </mxCell>
        <mxCell id="283_v-8102qVPDfe6uZ3-16" value="GTinh" style="ellipse;whiteSpace=wrap;html=1;" vertex="1" parent="1">
          <mxGeometry x="-1360" y="1220" width="100" height="50" as="geometry" />
        </mxCell>
        <mxCell id="283_v-8102qVPDfe6uZ3-21" value="" style="endArrow=none;html=1;rounded=0;entryX=0.5;entryY=0;entryDx=0;entryDy=0;exitX=1;exitY=1;exitDx=0;exitDy=0;" edge="1" parent="1" source="283_v-8102qVPDfe6uZ3-8" target="283_v-8102qVPDfe6uZ3-22">
          <mxGeometry width="50" height="50" relative="1" as="geometry">
            <mxPoint x="-940" y="1515" as="sourcePoint" />
            <mxPoint x="-770" y="1445" as="targetPoint" />
          </mxGeometry>
        </mxCell>
        <mxCell id="283_v-8102qVPDfe6uZ3-22" value="TenGV" style="ellipse;whiteSpace=wrap;html=1;fontStyle=0" vertex="1" parent="1">
          <mxGeometry x="-1210" y="1180" width="100" height="50" as="geometry" />
        </mxCell>
        <mxCell id="3T-Yqe7NFPyF3UGnD045-6" value="" style="endArrow=none;html=1;rounded=0;exitX=0.5;exitY=0;exitDx=0;exitDy=0;entryX=0.5;entryY=1;entryDx=0;entryDy=0;" edge="1" parent="1" source="qolicd1jbvUPZrwgAPYO-17" target="qolicd1jbvUPZrwgAPYO-82">
          <mxGeometry width="50" height="50" relative="1" as="geometry">
            <mxPoint x="600" y="320" as="sourcePoint" />
            <mxPoint x="610" y="400" as="targetPoint" />
          </mxGeometry>
        </mxCell>
        <mxCell id="6sazhby8mdmTCSbJGkmc-1" value="Ky" style="ellipse;whiteSpace=wrap;html=1;" vertex="1" parent="1">
          <mxGeometry x="-1000" y="605" width="100" height="40" as="geometry" />
        </mxCell>
        <mxCell id="6sazhby8mdmTCSbJGkmc-2" value="" style="endArrow=none;html=1;rounded=0;entryX=0.75;entryY=0;entryDx=0;entryDy=0;exitX=0;exitY=1;exitDx=0;exitDy=0;" edge="1" parent="1" source="6sazhby8mdmTCSbJGkmc-1" target="qolicd1jbvUPZrwgAPYO-136">
          <mxGeometry width="50" height="50" relative="1" as="geometry">
            <mxPoint x="-660" y="493.75" as="sourcePoint" />
            <mxPoint x="-1090" y="676.5" as="targetPoint" />
          </mxGeometry>
        </mxCell>
        <mxCell id="6sazhby8mdmTCSbJGkmc-3" value="" style="endArrow=none;html=1;rounded=0;entryX=1;entryY=0.5;entryDx=0;entryDy=0;exitX=0;exitY=0.5;exitDx=0;exitDy=0;" edge="1" parent="1" source="283_v-8102qVPDfe6uZ3-8" target="6sazhby8mdmTCSbJGkmc-4">
          <mxGeometry width="50" height="50" relative="1" as="geometry">
            <mxPoint x="-959.6" y="1069.87" as="sourcePoint" />
            <mxPoint x="-760" y="995.12" as="targetPoint" />
          </mxGeometry>
        </mxCell>
        <mxCell id="6sazhby8mdmTCSbJGkmc-4" value="SDT" style="ellipse;whiteSpace=wrap;html=1;" vertex="1" parent="1">
          <mxGeometry x="-1630" y="1080" width="100" height="50" as="geometry" />
        </mxCell>
        <mxCell id="6sazhby8mdmTCSbJGkmc-5" value="MaGV" style="ellipse;whiteSpace=wrap;html=1;fontStyle=4" vertex="1" parent="1">
          <mxGeometry x="-1190" y="1040" width="100" height="50" as="geometry" />
        </mxCell>
        <mxCell id="6sazhby8mdmTCSbJGkmc-6" value="" style="endArrow=none;html=1;rounded=0;entryX=0;entryY=1;entryDx=0;entryDy=0;exitX=1;exitY=0.25;exitDx=0;exitDy=0;" edge="1" parent="1" source="283_v-8102qVPDfe6uZ3-8" target="6sazhby8mdmTCSbJGkmc-5">
          <mxGeometry width="50" height="50" relative="1" as="geometry">
            <mxPoint x="-1253.6" y="1205.2500000000005" as="sourcePoint" />
            <mxPoint x="-1393.6" y="1200" as="targetPoint" />
          </mxGeometry>
        </mxCell>
        <mxCell id="6sazhby8mdmTCSbJGkmc-11" value="LopThi" style="rounded=1;whiteSpace=wrap;html=1;" vertex="1" parent="1">
          <mxGeometry x="-670" y="900" width="120" height="60" as="geometry" />
        </mxCell>
        <mxCell id="6sazhby8mdmTCSbJGkmc-14" value="" style="endArrow=none;html=1;rounded=0;exitX=0.5;exitY=1;exitDx=0;exitDy=0;entryX=0.843;entryY=0.043;entryDx=0;entryDy=0;entryPerimeter=0;" edge="1" parent="1" source="6sazhby8mdmTCSbJGkmc-27" target="6sazhby8mdmTCSbJGkmc-11">
          <mxGeometry width="50" height="50" relative="1" as="geometry">
            <mxPoint x="-220" y="755" as="sourcePoint" />
            <mxPoint x="-460" y="615.25" as="targetPoint" />
          </mxGeometry>
        </mxCell>
        <mxCell id="6sazhby8mdmTCSbJGkmc-18" value="ThoiGian" style="ellipse;whiteSpace=wrap;html=1;" vertex="1" parent="1">
          <mxGeometry x="-430" y="880" width="100" height="50" as="geometry" />
        </mxCell>
        <mxCell id="6sazhby8mdmTCSbJGkmc-19" value="" style="endArrow=none;html=1;rounded=0;entryX=1;entryY=0.75;entryDx=0;entryDy=0;exitX=0;exitY=0.5;exitDx=0;exitDy=0;" edge="1" parent="1" source="6sazhby8mdmTCSbJGkmc-18" target="6sazhby8mdmTCSbJGkmc-11">
          <mxGeometry width="50" height="50" relative="1" as="geometry">
            <mxPoint x="-250" y="1015.25" as="sourcePoint" />
            <mxPoint x="-510" y="865.25" as="targetPoint" />
          </mxGeometry>
        </mxCell>
        <mxCell id="6sazhby8mdmTCSbJGkmc-20" value="DiaDiem&amp;nbsp;" style="ellipse;whiteSpace=wrap;html=1;" vertex="1" parent="1">
          <mxGeometry x="-450" y="980" width="100" height="50" as="geometry" />
        </mxCell>
        <mxCell id="6sazhby8mdmTCSbJGkmc-21" value="" style="endArrow=none;html=1;rounded=0;entryX=1;entryY=0.75;entryDx=0;entryDy=0;" edge="1" parent="1" source="6sazhby8mdmTCSbJGkmc-20" target="6sazhby8mdmTCSbJGkmc-11">
          <mxGeometry width="50" height="50" relative="1" as="geometry">
            <mxPoint x="-240" y="1025.25" as="sourcePoint" />
            <mxPoint x="-540" y="938.25" as="targetPoint" />
          </mxGeometry>
        </mxCell>
        <mxCell id="6sazhby8mdmTCSbJGkmc-27" value="MaLopThi" style="ellipse;whiteSpace=wrap;html=1;fontStyle=4" vertex="1" parent="1">
          <mxGeometry x="-550" y="800" width="100" height="50" as="geometry" />
        </mxCell>
        <mxCell id="6sazhby8mdmTCSbJGkmc-34" value="" style="endArrow=classic;html=1;rounded=0;exitX=1;exitY=0;exitDx=0;exitDy=0;entryX=0;entryY=1;entryDx=0;entryDy=0;" edge="1" parent="1" source="qolicd1jbvUPZrwgAPYO-136" target="qolicd1jbvUPZrwgAPYO-139">
          <mxGeometry width="50" height="50" relative="1" as="geometry">
            <mxPoint x="-200" y="660" as="sourcePoint" />
            <mxPoint x="-150" y="610" as="targetPoint" />
          </mxGeometry>
        </mxCell>
        <mxCell id="6sazhby8mdmTCSbJGkmc-35" value="" style="endArrow=classic;html=1;rounded=0;exitX=0;exitY=0;exitDx=0;exitDy=0;entryX=1;entryY=0.5;entryDx=0;entryDy=0;" edge="1" parent="1" source="qolicd1jbvUPZrwgAPYO-125" target="qolicd1jbvUPZrwgAPYO-139">
          <mxGeometry width="50" height="50" relative="1" as="geometry">
            <mxPoint x="-1030" y="760" as="sourcePoint" />
            <mxPoint x="-686" y="592" as="targetPoint" />
          </mxGeometry>
        </mxCell>
        <mxCell id="6sazhby8mdmTCSbJGkmc-39" value="" style="endArrow=classic;html=1;rounded=0;entryX=1;entryY=0.5;entryDx=0;entryDy=0;exitX=0;exitY=0.5;exitDx=0;exitDy=0;" edge="1" parent="1" source="qolicd1jbvUPZrwgAPYO-125" target="qolicd1jbvUPZrwgAPYO-149">
          <mxGeometry width="50" height="50" relative="1" as="geometry">
            <mxPoint x="-200" y="660" as="sourcePoint" />
            <mxPoint x="-150" y="610" as="targetPoint" />
          </mxGeometry>
        </mxCell>
        <mxCell id="6sazhby8mdmTCSbJGkmc-40" value="" style="endArrow=classic;html=1;rounded=0;entryX=0.5;entryY=1;entryDx=0;entryDy=0;exitX=0.5;exitY=0;exitDx=0;exitDy=0;" edge="1" parent="1" source="6sazhby8mdmTCSbJGkmc-11" target="qolicd1jbvUPZrwgAPYO-149">
          <mxGeometry width="50" height="50" relative="1" as="geometry">
            <mxPoint x="-590" y="690" as="sourcePoint" />
            <mxPoint x="-540" y="640" as="targetPoint" />
          </mxGeometry>
        </mxCell>
        <mxCell id="6sazhby8mdmTCSbJGkmc-41" value="" style="endArrow=classic;html=1;rounded=0;entryX=0.5;entryY=0;entryDx=0;entryDy=0;exitX=0.5;exitY=1;exitDx=0;exitDy=0;" edge="1" parent="1" source="qolicd1jbvUPZrwgAPYO-136" target="6sazhby8mdmTCSbJGkmc-5">
          <mxGeometry width="50" height="50" relative="1" as="geometry">
            <mxPoint x="-800" y="880" as="sourcePoint" />
            <mxPoint x="-750" y="830" as="targetPoint" />
          </mxGeometry>
        </mxCell>
        <mxCell id="6sazhby8mdmTCSbJGkmc-43" value="" style="endArrow=classic;html=1;rounded=0;exitX=0.5;exitY=0;exitDx=0;exitDy=0;entryX=0.5;entryY=1;entryDx=0;entryDy=0;" edge="1" parent="1" source="qolicd1jbvUPZrwgAPYO-1" target="qolicd1jbvUPZrwgAPYO-17">
          <mxGeometry width="50" height="50" relative="1" as="geometry">
            <mxPoint x="640" y="340" as="sourcePoint" />
            <mxPoint x="690" y="290" as="targetPoint" />
          </mxGeometry>
        </mxCell>
        <mxCell id="6sazhby8mdmTCSbJGkmc-44" value="" style="endArrow=classic;html=1;rounded=0;entryX=0;entryY=1;entryDx=0;entryDy=0;exitX=0.75;exitY=0;exitDx=0;exitDy=0;" edge="1" parent="1" source="qolicd1jbvUPZrwgAPYO-43" target="qolicd1jbvUPZrwgAPYO-44">
          <mxGeometry width="50" height="50" relative="1" as="geometry">
            <mxPoint x="980" y="700" as="sourcePoint" />
            <mxPoint x="1030" y="650" as="targetPoint" />
          </mxGeometry>
        </mxCell>
        <mxCell id="6sazhby8mdmTCSbJGkmc-45" value="" style="endArrow=classic;html=1;rounded=0;entryX=0;entryY=1;entryDx=0;entryDy=0;exitX=0.75;exitY=0;exitDx=0;exitDy=0;" edge="1" parent="1" source="qolicd1jbvUPZrwgAPYO-9" target="qolicd1jbvUPZrwgAPYO-34">
          <mxGeometry width="50" height="50" relative="1" as="geometry">
            <mxPoint x="960" y="440" as="sourcePoint" />
            <mxPoint x="1010" y="390" as="targetPoint" />
          </mxGeometry>
        </mxCell>
        <mxCell id="6sazhby8mdmTCSbJGkmc-46" value="" style="endArrow=classic;html=1;rounded=0;entryX=0;entryY=0.5;entryDx=0;entryDy=0;exitX=1;exitY=0.25;exitDx=0;exitDy=0;" edge="1" parent="1" source="qolicd1jbvUPZrwgAPYO-8" target="qolicd1jbvUPZrwgAPYO-42">
          <mxGeometry width="50" height="50" relative="1" as="geometry">
            <mxPoint x="880" y="980" as="sourcePoint" />
            <mxPoint x="930" y="930" as="targetPoint" />
          </mxGeometry>
        </mxCell>
        <mxCell id="6sazhby8mdmTCSbJGkmc-47" value="" style="endArrow=classic;html=1;rounded=0;entryX=0;entryY=1;entryDx=0;entryDy=0;exitX=1;exitY=0.5;exitDx=0;exitDy=0;" edge="1" parent="1" source="qolicd1jbvUPZrwgAPYO-6" target="qolicd1jbvUPZrwgAPYO-24">
          <mxGeometry width="50" height="50" relative="1" as="geometry">
            <mxPoint x="940" y="80" as="sourcePoint" />
            <mxPoint x="990" y="30" as="targetPoint" />
          </mxGeometry>
        </mxCell>
        <mxCell id="HJ8TJwQUs-9Slm9EJrAU-1" value="Ky" style="ellipse;whiteSpace=wrap;html=1;fontStyle=0" vertex="1" parent="1">
          <mxGeometry x="1370" y="-200" width="100" height="50" as="geometry" />
        </mxCell>
        <mxCell id="HJ8TJwQUs-9Slm9EJrAU-3" value="" style="endArrow=none;html=1;rounded=0;exitX=1;exitY=0;exitDx=0;exitDy=0;entryX=0;entryY=1;entryDx=0;entryDy=0;" edge="1" parent="1" source="qolicd1jbvUPZrwgAPYO-6" target="HJ8TJwQUs-9Slm9EJrAU-1">
          <mxGeometry width="50" height="50" relative="1" as="geometry">
            <mxPoint x="1150" as="sourcePoint" />
            <mxPoint x="1200" y="-50" as="targetPoint" />
          </mxGeometry>
        </mxCell>
        <mxCell id="gI5b5SSrnbSQOFdTssa9-1" value="HoSV" style="ellipse;whiteSpace=wrap;html=1;fontStyle=0" vertex="1" parent="1">
          <mxGeometry x="1480" y="1010" width="100" height="50" as="geometry" />
        </mxCell>
        <mxCell id="gI5b5SSrnbSQOFdTssa9-2" value="" style="endArrow=none;html=1;rounded=0;entryX=0;entryY=0.5;entryDx=0;entryDy=0;exitX=1;exitY=0.75;exitDx=0;exitDy=0;" edge="1" parent="1" source="qolicd1jbvUPZrwgAPYO-8" target="gI5b5SSrnbSQOFdTssa9-3">
          <mxGeometry width="50" height="50" relative="1" as="geometry">
            <mxPoint x="1397" y="1180" as="sourcePoint" />
            <mxPoint x="1597" y="1105" as="targetPoint" />
          </mxGeometry>
        </mxCell>
        <mxCell id="gI5b5SSrnbSQOFdTssa9-3" value="TenDemSV" style="ellipse;whiteSpace=wrap;html=1;" vertex="1" parent="1">
          <mxGeometry x="1540" y="1070" width="100" height="50" as="geometry" />
        </mxCell>
        <mxCell id="gI5b5SSrnbSQOFdTssa9-4" value="" style="endArrow=none;html=1;rounded=0;entryX=0;entryY=0;entryDx=0;entryDy=0;exitX=1;exitY=1;exitDx=0;exitDy=0;" edge="1" parent="1" source="qolicd1jbvUPZrwgAPYO-8" target="gI5b5SSrnbSQOFdTssa9-5">
          <mxGeometry width="50" height="50" relative="1" as="geometry">
            <mxPoint x="1380" y="1179" as="sourcePoint" />
            <mxPoint x="1607" y="1165" as="targetPoint" />
          </mxGeometry>
        </mxCell>
        <mxCell id="gI5b5SSrnbSQOFdTssa9-5" value="TenSV" style="ellipse;whiteSpace=wrap;html=1;" vertex="1" parent="1">
          <mxGeometry x="1500" y="1130" width="100" height="50" as="geometry" />
        </mxCell>
        <mxCell id="gI5b5SSrnbSQOFdTssa9-6" value="" style="endArrow=classic;html=1;rounded=0;entryX=0;entryY=0.5;entryDx=0;entryDy=0;exitX=1;exitY=0.5;exitDx=0;exitDy=0;" edge="1" parent="1" source="qolicd1jbvUPZrwgAPYO-8" target="gI5b5SSrnbSQOFdTssa9-1">
          <mxGeometry width="50" height="50" relative="1" as="geometry">
            <mxPoint x="1397" y="1165" as="sourcePoint" />
            <mxPoint x="1087" y="1050" as="targetPoint" />
          </mxGeometry>
        </mxCell>
        <mxCell id="gI5b5SSrnbSQOFdTssa9-8" value="SoTinHocPhi" style="ellipse;whiteSpace=wrap;html=1;" vertex="1" parent="1">
          <mxGeometry x="-590" y="291.5" width="100" height="50" as="geometry" />
        </mxCell>
        <mxCell id="gI5b5SSrnbSQOFdTssa9-9" value="" style="endArrow=none;html=1;rounded=0;entryX=0.75;entryY=0;entryDx=0;entryDy=0;exitX=0.5;exitY=1;exitDx=0;exitDy=0;" edge="1" parent="1" source="gI5b5SSrnbSQOFdTssa9-8" target="qolicd1jbvUPZrwgAPYO-151">
          <mxGeometry width="50" height="50" relative="1" as="geometry">
            <mxPoint x="-720" y="456.25" as="sourcePoint" />
            <mxPoint x="-620" y="427" as="targetPoint" />
          </mxGeometry>
        </mxCell>
        <mxCell id="gI5b5SSrnbSQOFdTssa9-11" value="HeDT" style="rounded=1;whiteSpace=wrap;html=1;" vertex="1" parent="1">
          <mxGeometry x="130" y="-90" width="120" height="60" as="geometry" />
        </mxCell>
        <mxCell id="gI5b5SSrnbSQOFdTssa9-13" value="TienTinChi" style="ellipse;whiteSpace=wrap;html=1;" vertex="1" parent="1">
          <mxGeometry x="230" y="-200" width="100" height="50" as="geometry" />
        </mxCell>
        <mxCell id="gI5b5SSrnbSQOFdTssa9-17" value="" style="endArrow=none;html=1;rounded=0;entryX=0.5;entryY=0;entryDx=0;entryDy=0;exitX=0.5;exitY=1;exitDx=0;exitDy=0;" edge="1" parent="1" source="gI5b5SSrnbSQOFdTssa9-13" target="gI5b5SSrnbSQOFdTssa9-11">
          <mxGeometry width="50" height="50" relative="1" as="geometry">
            <mxPoint x="-41.39999999999992" y="-147" as="sourcePoint" />
            <mxPoint x="53.60000000000002" y="-100" as="targetPoint" />
          </mxGeometry>
        </mxCell>
        <mxCell id="gI5b5SSrnbSQOFdTssa9-22" value="TenHDT" style="ellipse;whiteSpace=wrap;html=1;fontStyle=0" vertex="1" parent="1">
          <mxGeometry x="19.999999999999943" y="-200" width="100" height="50" as="geometry" />
        </mxCell>
        <mxCell id="gI5b5SSrnbSQOFdTssa9-24" value="" style="endArrow=none;html=1;rounded=0;entryX=0.25;entryY=0;entryDx=0;entryDy=0;exitX=1;exitY=1;exitDx=0;exitDy=0;" edge="1" parent="1" source="gI5b5SSrnbSQOFdTssa9-22" target="gI5b5SSrnbSQOFdTssa9-11">
          <mxGeometry width="50" height="50" relative="1" as="geometry">
            <mxPoint x="-200" y="-191.5" as="sourcePoint" />
            <mxPoint x="-150" y="-91.5" as="targetPoint" />
          </mxGeometry>
        </mxCell>
        <mxCell id="gI5b5SSrnbSQOFdTssa9-26" value="" style="endArrow=none;html=1;rounded=0;entryX=1;entryY=1;entryDx=0;entryDy=0;exitX=0;exitY=0;exitDx=0;exitDy=0;" edge="1" parent="1" source="qolicd1jbvUPZrwgAPYO-96" target="gI5b5SSrnbSQOFdTssa9-11">
          <mxGeometry width="50" height="50" relative="1" as="geometry">
            <mxPoint x="330" y="40" as="sourcePoint" />
            <mxPoint x="380" y="-10" as="targetPoint" />
          </mxGeometry>
        </mxCell>
        <mxCell id="gI5b5SSrnbSQOFdTssa9-27" value="" style="endArrow=classic;html=1;rounded=0;entryX=1;entryY=1;entryDx=0;entryDy=0;exitX=0;exitY=0;exitDx=0;exitDy=0;" edge="1" parent="1" source="qolicd1jbvUPZrwgAPYO-82" target="qolicd1jbvUPZrwgAPYO-96">
          <mxGeometry width="50" height="50" relative="1" as="geometry">
            <mxPoint x="530" y="150" as="sourcePoint" />
            <mxPoint x="580" y="100" as="targetPoint" />
          </mxGeometry>
        </mxCell>
        <mxCell id="gI5b5SSrnbSQOFdTssa9-28" value="Ky" style="ellipse;whiteSpace=wrap;html=1;" vertex="1" parent="1">
          <mxGeometry x="1460" y="540" width="100" height="50" as="geometry" />
        </mxCell>
        <mxCell id="gI5b5SSrnbSQOFdTssa9-29" value="" style="endArrow=none;html=1;rounded=0;entryX=1;entryY=0.25;entryDx=0;entryDy=0;exitX=0;exitY=0.5;exitDx=0;exitDy=0;" edge="1" parent="1" source="gI5b5SSrnbSQOFdTssa9-28" target="qolicd1jbvUPZrwgAPYO-43">
          <mxGeometry width="50" height="50" relative="1" as="geometry">
            <mxPoint x="1591.75" y="565" as="sourcePoint" />
            <mxPoint x="1188.25" y="670" as="targetPoint" />
          </mxGeometry>
        </mxCell>
        <mxCell id="dNab1a-xKEv9QuN_C38y-1" value="TongDiem" style="ellipse;whiteSpace=wrap;html=1;" vertex="1" parent="1">
          <mxGeometry x="820" y="-40" width="140" height="50" as="geometry" />
        </mxCell>
        <mxCell id="dNab1a-xKEv9QuN_C38y-2" value="" style="endArrow=none;html=1;rounded=0;entryX=0;entryY=0.75;entryDx=0;entryDy=0;exitX=1;exitY=0.5;exitDx=0;exitDy=0;" edge="1" parent="1" source="dNab1a-xKEv9QuN_C38y-1" target="qolicd1jbvUPZrwgAPYO-6">
          <mxGeometry width="50" height="50" relative="1" as="geometry">
            <mxPoint x="1220" y="190" as="sourcePoint" />
            <mxPoint x="1080" y="60" as="targetPoint" />
          </mxGeometry>
        </mxCell>
        <mxCell id="4tRkw4BJw2z0e2Ge4tdB-1" value="Nganh" style="rounded=1;whiteSpace=wrap;html=1;" vertex="1" parent="1">
          <mxGeometry x="543.6" y="-140" width="120" height="60" as="geometry" />
        </mxCell>
        <mxCell id="4tRkw4BJw2z0e2Ge4tdB-4" value="TenNganh" style="ellipse;whiteSpace=wrap;html=1;fontStyle=0" vertex="1" parent="1">
          <mxGeometry x="503.59999999999997" y="-230" width="100" height="50" as="geometry" />
        </mxCell>
        <mxCell id="4tRkw4BJw2z0e2Ge4tdB-5" value="" style="endArrow=none;html=1;rounded=0;entryX=0.25;entryY=0;entryDx=0;entryDy=0;exitX=0.5;exitY=1;exitDx=0;exitDy=0;" edge="1" parent="1" source="4tRkw4BJw2z0e2Ge4tdB-4" target="4tRkw4BJw2z0e2Ge4tdB-1">
          <mxGeometry width="50" height="50" relative="1" as="geometry">
            <mxPoint x="230" y="-221.5" as="sourcePoint" />
            <mxPoint x="280" y="-121.5" as="targetPoint" />
          </mxGeometry>
        </mxCell>
        <mxCell id="4tRkw4BJw2z0e2Ge4tdB-6" value="" style="endArrow=none;html=1;rounded=0;entryX=0.5;entryY=1;entryDx=0;entryDy=0;exitX=0.5;exitY=0;exitDx=0;exitDy=0;" edge="1" parent="1" source="qolicd1jbvUPZrwgAPYO-84" target="4tRkw4BJw2z0e2Ge4tdB-1">
          <mxGeometry width="50" height="50" relative="1" as="geometry">
            <mxPoint x="545" y="-177" as="sourcePoint" />
            <mxPoint x="600" y="-110" as="targetPoint" />
          </mxGeometry>
        </mxCell>
        <mxCell id="4tRkw4BJw2z0e2Ge4tdB-7" value="" style="endArrow=classic;html=1;rounded=0;entryX=0.5;entryY=1;entryDx=0;entryDy=0;exitX=0.5;exitY=0;exitDx=0;exitDy=0;" edge="1" parent="1" source="qolicd1jbvUPZrwgAPYO-82" target="qolicd1jbvUPZrwgAPYO-84">
          <mxGeometry width="50" height="50" relative="1" as="geometry">
            <mxPoint x="510" y="40" as="sourcePoint" />
            <mxPoint x="560" y="-10" as="targetPoint" />
          </mxGeometry>
        </mxCell>
        <mxCell id="i5Gq8nhZsMunzelGaBh--2" value="HocPhanChiTiet" style="rounded=1;whiteSpace=wrap;html=1;" vertex="1" parent="1">
          <mxGeometry x="-1140" y="300" width="120" height="60" as="geometry" />
        </mxCell>
        <mxCell id="i5Gq8nhZsMunzelGaBh--3" value="TenHP" style="ellipse;whiteSpace=wrap;html=1;" vertex="1" parent="1">
          <mxGeometry x="-1340" y="300" width="100" height="50" as="geometry" />
        </mxCell>
        <mxCell id="i5Gq8nhZsMunzelGaBh--4" value="SoTinHocPhan" style="ellipse;whiteSpace=wrap;html=1;" vertex="1" parent="1">
          <mxGeometry x="-1285" y="220" width="95" height="50" as="geometry" />
        </mxCell>
        <mxCell id="i5Gq8nhZsMunzelGaBh--5" value="" style="endArrow=none;html=1;rounded=0;entryX=0;entryY=0.5;entryDx=0;entryDy=0;exitX=1;exitY=0;exitDx=0;exitDy=0;" edge="1" parent="1" source="i5Gq8nhZsMunzelGaBh--3" target="i5Gq8nhZsMunzelGaBh--2">
          <mxGeometry width="50" height="50" relative="1" as="geometry">
            <mxPoint x="-875" y="546.75" as="sourcePoint" />
            <mxPoint x="-825" y="496.75" as="targetPoint" />
          </mxGeometry>
        </mxCell>
        <mxCell id="i5Gq8nhZsMunzelGaBh--6" value="" style="endArrow=none;html=1;rounded=0;entryX=0.25;entryY=0;entryDx=0;entryDy=0;exitX=1;exitY=1;exitDx=0;exitDy=0;" edge="1" parent="1" source="i5Gq8nhZsMunzelGaBh--4" target="i5Gq8nhZsMunzelGaBh--2">
          <mxGeometry width="50" height="50" relative="1" as="geometry">
            <mxPoint x="-1190" y="359.75" as="sourcePoint" />
            <mxPoint x="-1095" y="406.75" as="targetPoint" />
          </mxGeometry>
        </mxCell>
        <mxCell id="i5Gq8nhZsMunzelGaBh--7" value="TrongSo" style="ellipse;whiteSpace=wrap;html=1;" vertex="1" parent="1">
          <mxGeometry x="-1035" y="200" width="100" height="50" as="geometry" />
        </mxCell>
        <mxCell id="i5Gq8nhZsMunzelGaBh--8" value="" style="endArrow=none;html=1;rounded=0;entryX=1;entryY=0;entryDx=0;entryDy=0;exitX=0.5;exitY=1;exitDx=0;exitDy=0;" edge="1" parent="1" source="i5Gq8nhZsMunzelGaBh--7" target="i5Gq8nhZsMunzelGaBh--2">
          <mxGeometry width="50" height="50" relative="1" as="geometry">
            <mxPoint x="-1060" y="353" as="sourcePoint" />
            <mxPoint x="-920" y="313.5" as="targetPoint" />
          </mxGeometry>
        </mxCell>
        <mxCell id="i5Gq8nhZsMunzelGaBh--9" value="SoTinHocPhi" style="ellipse;whiteSpace=wrap;html=1;" vertex="1" parent="1">
          <mxGeometry x="-1140" y="170" width="100" height="50" as="geometry" />
        </mxCell>
        <mxCell id="i5Gq8nhZsMunzelGaBh--10" value="" style="endArrow=none;html=1;rounded=0;entryX=0.75;entryY=0;entryDx=0;entryDy=0;exitX=0.5;exitY=1;exitDx=0;exitDy=0;" edge="1" parent="1" source="i5Gq8nhZsMunzelGaBh--9" target="i5Gq8nhZsMunzelGaBh--2">
          <mxGeometry width="50" height="50" relative="1" as="geometry">
            <mxPoint x="-1100" y="359.75" as="sourcePoint" />
            <mxPoint x="-1000" y="330.5" as="targetPoint" />
          </mxGeometry>
        </mxCell>
        <mxCell id="i5Gq8nhZsMunzelGaBh--11" value="MaNganh" style="ellipse;whiteSpace=wrap;html=1;" vertex="1" parent="1">
          <mxGeometry x="-1320" y="396.5" width="100" height="50" as="geometry" />
        </mxCell>
        <mxCell id="i5Gq8nhZsMunzelGaBh--12" value="" style="endArrow=none;html=1;rounded=0;entryX=0;entryY=1;entryDx=0;entryDy=0;exitX=1;exitY=0;exitDx=0;exitDy=0;" edge="1" parent="1" source="i5Gq8nhZsMunzelGaBh--11" target="i5Gq8nhZsMunzelGaBh--2">
          <mxGeometry width="50" height="50" relative="1" as="geometry">
            <mxPoint x="-920" y="636.75" as="sourcePoint" />
            <mxPoint x="-1140" y="330.25" as="targetPoint" />
          </mxGeometry>
        </mxCell>
        <mxCell id="i5Gq8nhZsMunzelGaBh--13" value="Ky" style="ellipse;whiteSpace=wrap;html=1;" vertex="1" parent="1">
          <mxGeometry x="-915" y="280" width="100" height="50" as="geometry" />
        </mxCell>
        <mxCell id="i5Gq8nhZsMunzelGaBh--14" value="" style="endArrow=none;html=1;rounded=0;entryX=1;entryY=0.5;entryDx=0;entryDy=0;exitX=0;exitY=0.5;exitDx=0;exitDy=0;" edge="1" parent="1" source="i5Gq8nhZsMunzelGaBh--13" target="i5Gq8nhZsMunzelGaBh--2">
          <mxGeometry width="50" height="50" relative="1" as="geometry">
            <mxPoint x="-890" y="280.5" as="sourcePoint" />
            <mxPoint x="-1010" y="310.5" as="targetPoint" />
          </mxGeometry>
        </mxCell>
        <mxCell id="i5Gq8nhZsMunzelGaBh--15" value="" style="endArrow=none;html=1;rounded=0;entryX=0;entryY=0.21;entryDx=0;entryDy=0;exitX=1;exitY=1;exitDx=0;exitDy=0;entryPerimeter=0;" edge="1" parent="1" source="i5Gq8nhZsMunzelGaBh--2" target="qolicd1jbvUPZrwgAPYO-139">
          <mxGeometry width="50" height="50" relative="1" as="geometry">
            <mxPoint x="-855" y="379" as="sourcePoint" />
            <mxPoint x="-750" y="437" as="targetPoint" />
          </mxGeometry>
        </mxCell>
        <mxCell id="Ff6SW-c7D1DwWQL1T6TA-10" value="DangKiHP" style="rounded=1;whiteSpace=wrap;html=1;" vertex="1" parent="1">
          <mxGeometry x="-42" y="595" width="120" height="60" as="geometry" />
        </mxCell>
        <mxCell id="Ff6SW-c7D1DwWQL1T6TA-11" value="SV" style="ellipse;whiteSpace=wrap;html=1;" vertex="1" parent="1">
          <mxGeometry x="-210" y="580" width="100" height="50" as="geometry" />
        </mxCell>
        <mxCell id="Ff6SW-c7D1DwWQL1T6TA-12" value="KyHoc" style="ellipse;whiteSpace=wrap;html=1;" vertex="1" parent="1">
          <mxGeometry x="-70" y="490" width="100" height="50" as="geometry" />
        </mxCell>
        <mxCell id="Ff6SW-c7D1DwWQL1T6TA-13" value="" style="endArrow=none;html=1;rounded=0;entryX=0;entryY=0.5;entryDx=0;entryDy=0;exitX=1;exitY=1;exitDx=0;exitDy=0;" edge="1" parent="1" source="Ff6SW-c7D1DwWQL1T6TA-11" target="Ff6SW-c7D1DwWQL1T6TA-10">
          <mxGeometry width="50" height="50" relative="1" as="geometry">
            <mxPoint x="95" y="818.25" as="sourcePoint" />
            <mxPoint x="145" y="768.25" as="targetPoint" />
          </mxGeometry>
        </mxCell>
        <mxCell id="Ff6SW-c7D1DwWQL1T6TA-14" value="" style="endArrow=none;html=1;rounded=0;entryX=0.25;entryY=0;entryDx=0;entryDy=0;exitX=0.5;exitY=1;exitDx=0;exitDy=0;" edge="1" parent="1" source="Ff6SW-c7D1DwWQL1T6TA-12" target="Ff6SW-c7D1DwWQL1T6TA-10">
          <mxGeometry width="50" height="50" relative="1" as="geometry">
            <mxPoint x="-220" y="631.25" as="sourcePoint" />
            <mxPoint x="-125" y="678.25" as="targetPoint" />
          </mxGeometry>
        </mxCell>
        <mxCell id="Ff6SW-c7D1DwWQL1T6TA-17" value="MaHP" style="ellipse;whiteSpace=wrap;html=1;" vertex="1" parent="1">
          <mxGeometry x="70" y="480" width="100" height="50" as="geometry" />
        </mxCell>
        <mxCell id="Ff6SW-c7D1DwWQL1T6TA-18" value="" style="endArrow=none;html=1;rounded=0;entryX=0.75;entryY=0;entryDx=0;entryDy=0;exitX=0.5;exitY=1;exitDx=0;exitDy=0;" edge="1" parent="1" source="Ff6SW-c7D1DwWQL1T6TA-17" target="Ff6SW-c7D1DwWQL1T6TA-10">
          <mxGeometry width="50" height="50" relative="1" as="geometry">
            <mxPoint x="-130" y="631.25" as="sourcePoint" />
            <mxPoint x="-30" y="602" as="targetPoint" />
          </mxGeometry>
        </mxCell>
        <mxCell id="Ff6SW-c7D1DwWQL1T6TA-19" value="ThoiGianDangKi" style="ellipse;whiteSpace=wrap;html=1;" vertex="1" parent="1">
          <mxGeometry x="190" y="540" width="100" height="50" as="geometry" />
        </mxCell>
        <mxCell id="Ff6SW-c7D1DwWQL1T6TA-20" value="" style="endArrow=none;html=1;rounded=0;entryX=1;entryY=0.5;entryDx=0;entryDy=0;exitX=0;exitY=1;exitDx=0;exitDy=0;" edge="1" parent="1" source="Ff6SW-c7D1DwWQL1T6TA-19" target="Ff6SW-c7D1DwWQL1T6TA-10">
          <mxGeometry width="50" height="50" relative="1" as="geometry">
            <mxPoint x="-28" y="696.25" as="sourcePoint" />
            <mxPoint x="78" y="625" as="targetPoint" />
          </mxGeometry>
        </mxCell>
      </root>
    </mxGraphModel>
  </diagram>
</mxfile>
